<svg width="120" height="114" viewBox="0 0 120 114" fill="none" xmlns="http://www.w3.org/2000/svg">
<path d="M12.6667 113.25C9.41251 113.25 6.62575 112.09 4.30642 109.771C1.98709 107.452 0.829394 104.667 0.833338 101.417V77.75H42.25V89.5833H77.75V77.75H119.167V101.417C119.167 104.671 118.007 107.458 115.688 109.777C113.368 112.096 110.584 113.254 107.333 113.25H12.6667ZM54.0833 77.75V65.9167H65.9167V77.75H54.0833ZM0.833338 65.9167V36.3333C0.833338 33.0792 1.99301 30.2924 4.31234 27.9731C6.63167 25.6537 9.41645 24.496 12.6667 24.5H36.3333V12.6667C36.3333 9.41249 37.493 6.62574 39.8123 4.30641C42.1317 1.98707 44.9165 0.829379 48.1667 0.833323H71.8333C75.0875 0.833323 77.8743 1.99299 80.1936 4.31232C82.5129 6.63166 83.6706 9.41643 83.6667 12.6667V24.5H107.333C110.588 24.5 113.374 25.6597 115.694 27.979C118.013 30.2983 119.171 33.0831 119.167 36.3333V65.9167H77.75V54.0833H42.25V65.9167H0.833338ZM48.1667 24.5H71.8333V12.6667H48.1667V24.5Z" fill="#2D60E1"/>
</svg>
