<svg width="142" height="142" viewBox="0 0 142 142" fill="none" xmlns="http://www.w3.org/2000/svg">
<path d="M9.81233 60.3855V96.2973C9.8114 101.013 10.7394 105.683 12.5434 110.04C14.3473 114.397 16.9919 118.356 20.3261 121.69C23.6602 125.025 27.6186 127.67 31.9753 129.475C36.3319 131.28 41.0014 132.209 45.717 132.209H71.8237C76.5394 132.209 81.2089 131.28 85.5655 129.475C89.9221 127.67 93.8806 125.025 97.2147 121.69C100.549 118.356 103.193 114.397 104.997 110.04C106.801 105.683 107.729 101.013 107.728 96.2973V60.3926L9.81233 60.3855ZM84.3978 1.13598C85.394 1.97017 86.0179 3.1659 86.1324 4.46012C86.2469 5.75434 85.8426 7.04104 85.0084 8.03718C80.4502 13.4687 79.442 17.1749 80.8478 19.6599C81.288 20.4338 85.0581 26.3907 85.9243 28.2296C87.8839 32.3831 88.1395 36.4088 86.4497 41.1658C85.2069 44.5824 83.405 47.7687 81.1176 50.5946H108.673C111.775 50.7082 114.026 51.4963 115.418 52.9731C116.199 53.7825 116.753 54.8049 117.1 56.0403L117.526 56.0261C124.02 56.0261 130.248 58.6057 134.839 63.1974C139.431 67.7891 142.011 74.0168 142.011 80.5104C142.011 87.0041 139.431 93.2318 134.839 97.8235C130.248 102.415 124.02 104.995 117.526 104.995L116.703 104.966C114.688 115.39 109.107 124.786 100.92 131.544C92.7318 138.302 82.4471 141.998 71.8308 142H45.7099C39.7085 142 33.7659 140.818 28.2213 138.521C22.6768 136.224 17.6391 132.858 13.3958 128.614C9.15243 124.37 5.78667 119.331 3.49067 113.786C1.19467 108.242 0.013402 102.299 0.0143345 96.2973V59.1927C-0.127666 56.1184 0.454535 53.9387 1.74673 52.6607C3.04603 51.3827 4.96303 50.694 7.49063 50.6017H28.4569C28.73 50.1465 29.0753 49.7389 29.4793 49.3947C33.8103 45.724 36.6361 41.89 38.0561 37.8927C38.8655 35.6207 38.7732 34.2717 37.8999 32.4186C37.3461 31.24 33.86 25.7304 33.1642 24.495C29.3373 17.7358 31.446 9.98258 38.333 1.76078C38.738 1.24318 39.2431 0.812374 39.818 0.493996C40.393 0.175618 41.0261 -0.0238196 41.6797 -0.0924424C42.3333 -0.161065 42.9941 -0.0974706 43.6226 0.0945554C44.2512 0.286581 44.8347 0.603113 45.3383 1.0253C45.842 1.4475 46.2556 1.96672 46.5544 2.55205C46.8533 3.13739 47.0313 3.77688 47.0779 4.43244C47.1245 5.08801 47.0387 5.74624 46.8257 6.36797C46.6126 6.98969 46.2766 7.56219 45.8377 8.05138C41.2795 13.4829 40.2784 17.1891 41.6842 19.6741C42.1173 20.448 45.8945 26.4049 46.7607 28.2438C48.7132 32.3973 48.9759 36.423 47.279 41.18C46.0384 44.5961 44.2389 47.7824 41.954 50.6088H48.0458C48.3189 50.1536 48.6642 49.746 49.0682 49.4018C53.3921 45.724 56.2179 41.89 57.6379 37.8927C58.4473 35.6207 58.3621 34.2717 57.4817 32.4186C56.9279 31.24 53.4418 25.7304 52.746 24.495C48.9191 17.7358 51.0278 9.98258 57.9219 1.76078C58.3235 1.23336 58.8279 0.792928 59.4046 0.466132C59.9813 0.139336 60.6184 -0.0670215 61.2771 -0.140446C61.9359 -0.213871 62.6028 -0.152836 63.2373 0.0389638C63.8718 0.230763 64.4608 0.549338 64.9686 0.975399C65.4764 1.40146 65.8925 1.92615 66.1916 2.51769C66.4908 3.10923 66.6667 3.75533 66.7089 4.41686C66.751 5.07839 66.6585 5.7416 66.4369 6.36632C66.2153 6.99105 65.8692 7.5643 65.4195 8.05138C60.8684 13.4829 59.8602 17.1891 61.266 19.6741C61.7062 20.448 65.4763 26.4049 66.3425 28.2438C68.3021 32.3973 68.5577 36.423 66.8608 41.18C65.6202 44.5961 63.8207 47.7824 61.5358 50.6088H67.6347C67.9057 50.1542 68.2485 49.7465 68.65 49.4018C72.981 45.724 75.7997 41.89 77.2197 37.8927C78.0291 35.6207 77.9439 34.2717 77.0635 32.4186C76.5097 31.24 73.0307 25.7304 72.3278 24.495C68.508 17.7358 70.6096 9.98258 77.5037 1.76078C78.3377 0.766765 79.532 0.144216 80.8245 0.0297425C82.117 -0.084731 83.4021 0.318222 84.3978 1.15018V1.13598ZM117.519 65.817V95.1968C121.415 95.1968 125.152 93.6491 127.907 90.8942C130.662 88.1393 132.209 84.4029 132.209 80.5069C132.209 76.6109 130.662 72.8744 127.907 70.1195C125.152 67.3647 121.415 65.817 117.519 65.817Z" fill="#2D60E1"/>
</svg>
