<svg width="16" height="17" viewBox="0 0 16 17" fill="none" xmlns="http://www.w3.org/2000/svg">
<path d="M7.99999 0.0399933C3.6 0.0399933 0 3.64642 0 8.08819C0 12.1043 2.928 15.4376 6.75199 16.04V10.4175H4.71999V8.08819H6.75199V6.31309C6.75199 4.29702 7.94399 3.18859 9.77599 3.18859C10.648 3.18859 11.56 3.3412 11.56 3.3412V5.32513H10.552C9.55999 5.32513 9.24799 5.94361 9.24799 6.57815V8.08819H11.472L11.112 10.4175H9.24799V16.04C11.1331 15.7411 12.8497 14.7753 14.0879 13.3172C15.3261 11.859 16.0043 10.0044 16 8.08819C16 3.64642 12.4 0.0399933 7.99999 0.0399933Z" fill="#2D60E1"/>
</svg>
