<svg width="17" height="16" viewBox="0 0 17 16" fill="none" xmlns="http://www.w3.org/2000/svg">
<path d="M15.9068 7.28H8.37107V9.464H13.7208C13.4496 12.512 10.8446 13.816 8.37928 13.816C5.23188 13.816 2.47071 11.4 2.47071 8C2.47071 4.72 5.10039 2.184 8.3875 2.184C10.9268 2.184 12.4142 3.76 12.4142 3.76L13.9756 2.176C13.9756 2.176 11.9705 0 8.30533 0C3.63763 0 0.0300293 3.84 0.0300293 8C0.0300293 12.04 3.42397 16 8.42859 16C12.8251 16 16.03 13.064 16.03 8.728C16.03 7.808 15.9068 7.28 15.9068 7.28Z" fill="#2D60E1"/>
</svg>
