<svg width="120" height="120" viewBox="0 0 120 120" fill="none" xmlns="http://www.w3.org/2000/svg">
<path d="M73.3125 115.617C71.0445 117.885 68.234 119.019 64.8813 119.019C61.5285 119.019 58.7181 117.885 56.45 115.617L4.38335 63.55C3.29863 62.4653 2.43479 61.1833 1.79185 59.7042C1.1489 58.225 0.829405 56.6472 0.833349 54.9708V12.6667C0.833349 9.41249 1.99302 6.62574 4.31235 4.30641C6.63168 1.98707 9.41646 0.829379 12.6667 0.833323H54.9708C56.6472 0.833323 58.225 1.1548 59.7042 1.79774C61.1833 2.44068 62.4653 3.30254 63.55 4.38332L115.617 56.5979C117.885 58.866 119.019 61.6527 119.019 64.9582C119.019 68.2636 117.885 71.0484 115.617 73.3125L73.3125 115.617ZM27.4584 36.3333C29.9236 36.3333 32.0201 35.4695 33.7478 33.7418C35.4754 32.0142 36.3373 29.9197 36.3334 27.4583C36.3334 24.993 35.4695 22.8966 33.7419 21.1689C32.0142 19.4412 29.9197 18.5794 27.4584 18.5833C24.9931 18.5833 22.8966 19.4472 21.1689 21.1748C19.4413 22.9025 18.5794 24.997 18.5834 27.4583C18.5834 29.9236 19.4472 32.0201 21.1749 33.7477C22.9025 35.4754 24.997 36.3373 27.4584 36.3333Z" fill="#2D60E1"/>
</svg>
