<?xml version="1.0" encoding="utf-8"?>
<!-- Generator: Adobe Illustrator 24.1.3, SVG Export Plug-In . SVG Version: 6.00 Build 0)  -->
<svg version="1.1" id="Capa_1" xmlns="http://www.w3.org/2000/svg" xmlns:xlink="http://www.w3.org/1999/xlink" x="0px" y="0px"
	 viewBox="0 0 76 84" style="enable-background:new 0 0 76 84;" xml:space="preserve">
<style type="text/css">
	.st0{fill:#230871;}
</style>
<g>
	<path class="st0" d="M59.57,19.33c0.28,2.03,3.35,4.76,4.18,4.69c0.56,0,0.77-2.65,0.77-4.69c0-1.17,0.06-2.09-0.55-2.31
		C62.99,19.01,60.41,19.41,59.57,19.33L59.57,19.33z M59.75,18.43c2.22,0,4.25-1.77,4.25-3.33c0-0.73-0.34-1.32-1.22-1.43
		c0.15,0.19,0.21,0.34,0.21,0.68c0,1.17-1.79,2.48-3.73,2.48c-0.7,0-0.92,0.49-0.92,0.75C58.34,18.17,58.91,18.43,59.75,18.43
		L59.75,18.43z M59.28,16.02c-0.3,0-0.73,0-0.96-0.47c-0.19-0.38-0.13-1-0.49-1.28c0.36,0.11,0.75,0.11,1.05,0.11
		c0.96,0,1.88-0.66,2.58-0.66c0.47,0,0.62,0.3,0.62,0.6C62.07,15.25,60.17,16.02,59.28,16.02L59.28,16.02z M11.55,32.74
		c0.72,0,0.57-4.44,1.75-4.44c0.28,0,0.36,0.28,0.36,0.62c0,1-0.49,2.47-0.49,3.29c0,0.41,0.11,0.53,0.3,0.53
		c0.51,0,1.41-4.89,2.28-4.89c0.28,0,0.41,0.28,0.41,0.56c0,1.02-1.3,3.97-1.3,4.8c0,0.13,0.04,0.23,0.15,0.23
		c0.53,0,1.6-2.3,1.94-3.46c0.19-0.6,0.45-0.92,0.68-0.92c0.21,0,0.41,0.23,0.41,0.73c0,1.15-1.07,3.86-2.01,5.68
		c-0.73,1.41-1.86,3.43-1.86,4.57c0,0.58,0.11,1.17,0.94,1.9c-1.37-0.09-1.92-0.21-2.43-1.28c-2.28,4.54,4.2,4.1,1.98,8.13
		c-0.4-0.72-3.61-1.47-3.61-5.7c0-3.65,3.2-5.78,3.2-7.3c0-0.3-0.11-0.55-0.38-0.79c-0.7-0.6-0.73-1.09-1.28-1.09
		c-0.41,0-0.9,0.94-0.38,1.77c0.17,0.28,0.32,0.45,0.32,0.7c0,0.6-0.94,2.2-1.6,2.2c-0.66,0-1.17-1.64-1.17-4.29
		c0-2.35,0.53-4.71,1.2-4.71c0.19,0,0.26,0.13,0.26,0.3c0,0.28-0.09,0.83-0.09,1.77C11.12,32.66,11.36,32.74,11.55,32.74
		L11.55,32.74z M44.23,11.77c0.34,0,0.41,0.83,0.47,1.32c0.04,0.26,0.09,0.28,0.19,0.28c0.26,0,0.66-0.98,0.94-0.98
		c0.41,0,1.49,1.13,3.31,1.13c2.58,0,5.01-1.81,5.01-5.01c0-3.09-2.18-4.91-5.18-4.91c-1.43,0-2.48,0.7-3.03,0.7
		c-0.34,0.02-0.85-0.83-1.11-0.83c-0.11,0-0.21,0.21-0.21,0.58c0,0.23,0,0.98-0.26,0.98c-0.51,0-2.49-1.47-2.49-0.94
		c0,0.49,1.32,1.99,1.32,2.37c0,0.38-1.3,0.75-1.3,1c0,0.47,1.39,0.56,1.39,1.15c0,0.6-1.45,1.07-1.45,1.51
		c0,0.36,1.45,0.11,1.45,0.56c0,0.45-1.07,1.94-1.07,2.37c0,0.11,0.02,0.11,0.11,0.11C42.72,13.16,43.94,11.77,44.23,11.77
		L44.23,11.77z M16.86,43.31c-0.02-0.43,0.28-0.83,0.73-0.88c0.45-0.06,0.85,0.28,0.9,0.73c0.04,0.45-0.28,0.83-0.73,0.9
		C17.31,44.07,16.91,43.75,16.86,43.31L16.86,43.31z M14.5,43.97c0.09,0.73,0.77,1.28,1.54,1.19c0.28-0.02,0.53-0.11,0.7-0.21
		c0.17,0.68,0.7,1.11,1.49,1.02c0.79-0.06,1.35-0.73,1.26-1.51c0-0.21-0.06-0.34-0.13-0.49l0.15-0.02c0.75-0.09,1.32-0.77,1.26-1.52
		c-0.08-0.77-0.79-1.32-1.51-1.26c-0.28,0.06-0.51,0.15-0.68,0.3c-0.19-0.64-0.75-1.15-1.54-1.07c-0.75,0.04-1.32,0.77-1.24,1.56
		c0,0.11,0.04,0.28,0.11,0.43l-0.15,0.02C15.01,42.52,14.43,43.13,14.5,43.97L14.5,43.97z M62.03,4.84c0,0.3,0.23,0.53,0.53,0.53
		c0.3,0,0.53-0.23,0.53-0.53c0-0.3-0.24-0.53-0.53-0.53C62.26,4.31,62.03,4.54,62.03,4.84L62.03,4.84z M50.12,25.06
		c0,0.49,0.4,0.9,0.89,0.9c0.49,0,0.9-0.41,0.9-0.9c0-0.49-0.41-0.9-0.9-0.9C50.53,24.17,50.12,24.57,50.12,25.06L50.12,25.06z
		 M50.19,27.75c0,0.56,0.45,1,1,1c0.55,0,1-0.45,1-1c0-0.55-0.45-1-1-1C50.64,26.75,50.19,27.2,50.19,27.75L50.19,27.75z
		 M47.11,29.57c0,0.81,0.66,1.47,1.47,1.47c0.81,0,1.47-0.66,1.47-1.47c0-0.81-0.66-1.47-1.47-1.47
		C47.78,28.09,47.11,28.76,47.11,29.57L47.11,29.57z M47.9,26.56c0,0.47,0.38,0.85,0.85,0.85c0.47,0,0.85-0.38,0.85-0.85
		c0-0.47-0.38-0.85-0.85-0.85C48.29,25.71,47.9,26.09,47.9,26.56L47.9,26.56z M45.11,28.27c0,0.47,0.38,0.85,0.85,0.85
		c0.47,0,0.85-0.38,0.85-0.85c0-0.47-0.38-0.85-0.85-0.85C45.49,27.41,45.11,27.79,45.11,28.27L45.11,28.27z M47.31,23.27
		c0,0.75,0.62,1.37,1.37,1.37c0.75,0,1.36-0.62,1.36-1.37c0-0.75-0.62-1.37-1.36-1.37C47.93,21.91,47.31,22.53,47.31,23.27
		L47.31,23.27z M48.91,20.65c0,0.45,0.36,0.81,0.81,0.81c0.45,0,0.81-0.36,0.81-0.81c0-0.45-0.36-0.81-0.81-0.81
		C49.27,19.84,48.91,20.2,48.91,20.65L48.91,20.65z M45.05,22.7c0,0.45,0.36,0.81,0.81,0.81c0.45,0,0.81-0.36,0.81-0.81
		c0-0.45-0.36-0.81-0.81-0.81C45.41,21.89,45.05,22.25,45.05,22.7L45.05,22.7z M44.94,25.47c0,0.73,0.58,1.3,1.3,1.3
		c0.72,0,1.3-0.58,1.3-1.3c0-0.72-0.58-1.3-1.3-1.3C45.51,24.17,44.94,24.75,44.94,25.47L44.94,25.47z M42.25,26.84
		c0,0.66,0.55,1.22,1.22,1.22s1.22-0.55,1.22-1.22c0-0.66-0.55-1.22-1.22-1.22S42.25,26.17,42.25,26.84L42.25,26.84z M42.98,23.83
		c0,0.47,0.38,0.85,0.85,0.85c0.47,0,0.85-0.38,0.85-0.85s-0.38-0.85-0.85-0.85C43.36,22.97,42.98,23.36,42.98,23.83L42.98,23.83z
		 M40.14,55.28c0,0.47,0.38,0.85,0.85,0.85c0.47,0,0.85-0.38,0.85-0.85c0-0.47-0.38-0.85-0.85-0.85
		C40.52,54.42,40.14,54.8,40.14,55.28L40.14,55.28z M17.18,19.92c0,0.47,0.38,0.85,0.85,0.85c0.47,0,0.85-0.38,0.85-0.85
		c0-0.47-0.38-0.85-0.85-0.85C17.57,19.07,17.18,19.45,17.18,19.92L17.18,19.92z M16.07,18c0,0.47,0.38,0.85,0.85,0.85
		c0.47,0,0.85-0.38,0.85-0.85s-0.38-0.85-0.85-0.85C16.46,17.15,16.07,17.53,16.07,18L16.07,18z M16.99,39
		c0.9,0,1.64-0.66,1.64-2.13v-2.18c0-0.83,0.06-1.77,0.62-2.43c-0.06,0.28-0.06,0.58-0.06,0.85c0,1.84,1.02,3.09,1.02,4.87
		c0,0.66-0.19,1.02-0.7,1.02c-0.49,0-0.45-0.45-0.56-0.45c-0.09,0-0.21,0.28-0.21,0.57c0,0.45,0.32,1.15,1.22,1.15
		c0.77,0,1.39-0.7,1.39-1.49c0-1.92-1.49-4.05-1.49-6.1c0-0.9,0.23-1.49,0.43-1.96c0,4.25,3.61,7.34,3.61,9.11
		c0,0.41-0.3,0.73-0.75,0.73c-0.49,0-0.72-0.39-0.72-0.68c0-0.15-0.02-0.19-0.08-0.19c-0.13,0-0.51,0.43-0.51,0.98
		c0,0.7,0.58,1.56,1.64,1.56c1.22,0,1.88-1.02,1.88-1.94c0-2.24-4.37-5.63-4.37-9.26c0-0.62,0.11-1.62,0.55-2.39
		c-2.82,1.81-3.69,4.22-3.69,6.34c0,1.83-0.06,2.75-1,2.75c-0.49,0-0.62-0.45-0.79-0.45c-0.13,0-0.19,0.39-0.19,0.49
		C15.84,38.55,16.41,39,16.99,39L16.99,39z M53.96,17.68c0.94,0,1.64-0.43,1.64-0.68c0-0.09-0.13-0.15-0.41-0.15
		c-0.28,0-0.83-0.02-1.88-0.19c-0.9-0.15-1.58-0.49-1.84-0.49c-0.09,0-0.13,0.04-0.13,0.11C51.36,16.83,52.38,17.68,53.96,17.68
		L53.96,17.68z M49.31,14.97c0.28-0.17,1.47,0.11,3.03-0.66c0.19-0.1,0.38-0.15,0.55-0.15c0.75,0,0.55,0.85,1.24,0.85
		c0.53,0,1.22-0.45,1.62-0.45c0.64,0,1.56,2.01,1.56,2.94c0,1.09-1.64,1.75-3.58,1.75c-2.84,0-4.54-2.47-4.54-4.07
		C49.19,15.06,49.25,15.02,49.31,14.97L49.31,14.97z M17.44,47.04c-0.7,0.17-1.83,1.28-1.83,3.03c0,2.09,2.24,5.31,5.93,5.31
		c3.12,0,3.88-2.16,3.88-3.61c0-3.22-1.98-5.48-4.57-5.48c-1.41,0-2.67,1.02-2.67,2.54c0,1.41,1.07,3.52,3.61,3.52
		c1.19,0,1.9-0.85,1.9-1.84c0-0.96-0.88-2.28-2.15-2.28c-0.38,0-0.66,0.26-0.66,0.66c0,0.51,0.7,1.02,1.58,1.02
		c0.21,0,0.38-0.04,0.47-0.09c0.04,0.06,0.06,0.17,0.06,0.26c0,0.49-0.47,0.79-1.19,0.79c-1.09,0-2.13-0.81-2.13-2.09
		c0-0.77,0.66-1.32,1.62-1.32c1.9,0,3.03,1.69,3.03,3.37c0,1.52-0.83,2.39-2.54,2.39C18.36,53.23,16.69,50.15,17.44,47.04
		L17.44,47.04z M15.31,23.85c-0.49,0.13-1.51,0.73-1.51,1.79c0,0.77,0.6,1.26,1.34,1.26c0.38,0,0.66-0.09,0.83-0.21
		c-0.6-0.58-0.81-1.22-0.81-1.86C15.16,24.38,15.22,24.11,15.31,23.85L15.31,23.85z M10.08,24.15c-0.02,0.11-0.02,0.21-0.02,0.32
		c0,1,0.53,1.56,1.24,1.56c0.53,0,1.15-0.32,1.71-1.02c-0.23,0.04-0.51,0.06-0.77,0.06C11.44,25.06,10.59,24.85,10.08,24.15
		L10.08,24.15z M9.33,26.05c0,1.62,0.49,2.39,1.37,2.39c0.68,0,1.6-0.49,2.69-1.43c-0.83,0.19-1.47,0.32-2.05,0.32
		C10.57,27.33,9.97,27.03,9.33,26.05L9.33,26.05z M41.8,59.54c1.02,0,0.96-0.09,1.28-0.09c0.32,0,0.34,0.19,0.34,0.32
		c0,0.47-1.05,1.05-2.9,1.05c-1.09,0-1.75-0.58-1.94-1.22c-1.07,0.68-2.69,1.3-4.29,1.3c-4.37,0-5.48-1.9-6.85-2.52
		c-1.05-0.47-2.65,0.45-4.89-2.05c0.3,0.06,0.7,0.09,1.02,0.09c1.96,0,3.01-0.96,3.01-2.49c0-0.19-0.02-0.41-0.04-0.6
		c0.6,0.23,1.96,1.26,2.28,3.07c0.04,0.21,0.92,0.4,1.47,0.4c0.77,0,1.75-0.32,1.9-1.58c2.56-0.21,4.29-1.73,4.65-3.65
		c0.92,0.3,1.96,1.13,2.22,1.56c0.36-0.13,0.79-0.19,1.28-0.19c0.68,0,1.45,0.13,2.37,0.41c0.04-0.28,0.09-0.62,0.51-0.62
		c0.64,0,0.47,0.7,0.68,1.11c0.11,0.21,0.64,0.34,0.64,0.77c0,0.41-0.34,0.55-0.55,0.55c-0.09,0-0.19-0.02-0.26-0.04
		c-0.43,0.15-0.45,3.22-2.24,3.22c-1.32,0-2.54-1.09-3.07-2.45c-0.15-0.4-0.47-0.66-0.77-0.66c-0.34,0-0.53,0.07-0.94,0.51
		c-1.15,1.26-3.07,2.35-5.44,2.35c-0.73,0-1.3-0.06-1.45-0.06c-0.08,0-0.08,0.02-0.08,0.04c0,0.15,0.73,0.73,2.3,0.73
		c3.75,0,4.67-2.11,5.27-2.11c0.09,0,0.34,0,0.49,0.34c0.87,2.05,2.77,2.52,3.97,2.52H41.8L41.8,59.54z M29.69,16.66
		c1.41,0,2.05,1.22,2.05,2.58c0,0.6-0.17,1.47-0.45,1.47c-0.28,0-0.24-0.49-0.28-0.94c-0.04-0.57-0.15-0.7-0.34-0.7
		c-0.36,0-0.6,0.85-0.6,1.64c0,0.49,0.08,1.05,0.47,1.05c0.21,0,0.4-0.11,0.53-0.23c-0.09,0.98-0.81,1.83-1.83,1.83
		c-1.88,0-2.58-2.2-2.8-3.48c-1.13,1.2-2.18,2.07-4.05,2.07c-1.75,0-2.54-1.28-2.54-2.5c0-0.36,0.13-1.3,0.57-1.3
		c0.53,0,0.06,1.75,1.11,1.75c0.26,0,0.73-0.21,0.98-0.92c0.15-0.43,0.23-0.88,0.23-1.26c0-0.58-0.13-0.94-0.55-0.94
		c-0.36,0-0.81,0.28-0.96,0.43c0.51-1.54,1.75-2.33,3.11-2.33c1.69,0,2.58,1.49,2.58,3.16c0,0.23-0.02,0.49-0.06,0.73
		C27.6,17.58,28.6,16.66,29.69,16.66L29.69,16.66z M24.33,3.94c0-0.13-0.64-0.26-1.52-0.26c-1.39,0-1.19,1.15-2.26,1.15
		c-1.11,0-0.83-1.19-2.24-1.19c-0.85,0-1.64,0.15-1.64,0.34c0,0.26,1,0.15,1,0.85c0,0.75-2.15,0.96-2.15,1.41
		c0,0.15,0.17,0.21,0.38,0.21c0.47,0,1.22-0.21,1.75-0.21c0.3,0,0.58,0.06,0.58,0.34c0,0.53-1.15,1.49-1.15,1.92
		c0,0.13,0.11,0.17,0.21,0.17c0.43,0,1.15-1.09,1.83-1.09c1.13,0,0.38,2.41,1,2.41c0.64,0,0.36-2.37,1.28-2.37
		c0.75,0,1.3,1.64,1.81,1.64c0.13,0,0.23-0.11,0.23-0.26c0-0.45-0.64-1.37-0.64-1.96c0-0.36,0.26-0.53,0.6-0.53
		c0.49,0,1.15,0.3,1.52,0.3c0.13,0,0.26-0.04,0.26-0.19c0-0.51-1.9-1.07-1.9-1.73C23.28,4.24,24.33,4.24,24.33,3.94L24.33,3.94z
		 M54.73,45.95c-0.45,0-2.92,3.31-4.52,3.31c-0.38,0-0.71-0.73-0.71-1.28c0-0.3,0.19-0.51,0.88-0.66c3.67-0.83,2.86-3.58,5.99-3.58
		c1.73,0,3.65,1.17,3.65,3.82c0,2.81-4.01,6.32-4.61,6.32c-0.49,0-1.02-0.71-1.02-1.17c0-0.15,0.06-0.34,0.49-0.51
		c2.05-0.81,3.22-2.69,3.22-3.65c0-0.21-0.11-0.43-0.38-0.43c-0.36,0-1.92,3.54-3.65,3.54c-1.2,0-2.41-1.09-2.41-1.6
		c0-0.85,3.46-2.43,3.46-3.63C55.12,45.97,54.9,45.95,54.73,45.95L54.73,45.95z M57.04,44.63c-0.3,0-0.62,0.24-0.62,0.81
		c0,0.64,0.49,1.05,0.77,1.17c0.15,0.09,0.38,0.17,0.62,0.17c0.62,0,1.11-0.17,1.11-0.68C58.91,45.44,57.95,44.63,57.04,44.63
		L57.04,44.63z M29.34,6.12c0,0.38,1.34,1.22,1.96,1.22c0.36,0,0.47-0.49,0.47-1c0-0.64-0.28-0.66-0.83-0.66
		C30.24,5.67,29.34,5.86,29.34,6.12L29.34,6.12z M31.56,10.34c0-1.28-3.5-3.65-3.5-4.61c0-0.04,0-0.06,0.02-0.11
		c0.26-0.7,3.16-1.2,3.16-1.77c0-0.28-0.51-0.28-0.77-0.28c-1.98,0-4.89,0.73-4.89,1.43c0,0.73,2.6,2.5,2.6,3.37
		c0,0.23-0.15,0.32-0.38,0.32c-0.73,0-2.31-0.87-3.05-0.87c-0.34,0-0.47,0.23-0.47,0.58c0,1.02,1.21,2.97,1.21,3.54
		c0,0.06-0.02,0.15-0.11,0.15c-0.38,0-2.2-2.13-2.84-2.13c-0.23,0-0.26,0.32-0.26,0.79v0.73c0,0.49-0.02,0.79-0.26,0.79
		c-0.56,0-0.81-1.56-1.34-1.56c-0.56,0-0.66,2.77-1.19,2.77c-0.62,0-0.09-3.05-0.68-3.05c-0.66,0-1.41,2.03-1.88,2.03
		c-0.17,0-0.21-0.17-0.21-0.32c0-0.62,0.36-1.62,0.36-2.22c0-0.3-0.09-0.47-0.34-0.47c-0.66,0-2.11,1.07-2.67,1.07
		c-0.09,0-0.19-0.04-0.19-0.13c0-0.51,2.33-2.13,2.33-2.86c0-0.7-3.2-0.23-3.2-1.05c0-0.68,2.28-1.39,2.28-2.09
		c0-0.62-2.71-0.89-3.75-0.89c-1.26,0-1.94,0.15-1.94,0.51c0,0.56,2.86,0.73,2.86,1.22c0,0.47-2.97,1.73-2.97,2.45
		c0,0.64,4.18,0.04,4.18,0.7c0,0.72-3.65,3.86-3.65,4.91c0,0.24,0.17,0.34,0.41,0.34c1.11,0,3.99-2.11,4.78-2.11
		c0.28,0,0.3,0.34,0.3,0.64c0,0.55-0.19,1.41-0.19,2.03c0,0.49,0.13,0.83,0.56,0.83c0.79,0,1.51-1.34,2.05-1.34
		c0.68,0,0.28,3.95,1.3,3.95c0.87,0,1.24-4.27,1.79-4.27c0.56,0,1,1.24,1.52,1.24c0.64,0,0.34-2.15,1.02-2.15
		c0.75,0,2.88,2.56,3.84,2.56c0.3,0,0.41-0.24,0.41-0.53c0-1.13-1.58-3.69-1.58-4.5c0-0.21,0.06-0.28,0.3-0.28
		c0.83,0,3.26,1.15,4.42,1.15C31.33,10.83,31.56,10.62,31.56,10.34L31.56,10.34z M60.69,34.9c0.34-1.07,0.77-1.82,1.47-2.97
		c-0.7-0.36-2.56-1.13-2.56-2.39c0-1.47,1.84-2.62,2.22-2.62c0.17,0,0.21,0.15,0.21,0.43c0,0.77-0.36,2-0.36,2.67
		c0,0.6,0.38,1.17,0.73,1.17c0.36,0,1.37-1.28,1.37-2.54c0-2.26-1.98-2.94-2.6-2.94c-0.58,0-1.62,0.94-4.08,0.94
		c-4.59,0-5.63-4.54-5.63-6.53c0-0.09,0.02-0.11,0.04-0.11c0.11,0,0.56,0.56,2.01,0.56c0.75,0,1.43-0.19,2.52-0.19
		c2.56,0,3.69,1.77,5.27,4.03c0.96,0.6,3.24,1.56,3.24,4.27c0,2.39-2.54,3.71-3.16,6.27c0.98-0.11,1.56-1.86,2.56-1.86
		c0.51,0,0.75,0.41,0.75,1.05c0,0.94-0.53,2.35-1.56,3.22c0.02-0.09,0.02-0.19,0.02-0.32c0-0.6-0.24-1.45-0.92-1.45
		c-1.06,0-1.41,1.15-2.01,2.11c-0.62-2.17-1.45-4.14-2.94-5.33c-1.51-1.22-4.12-0.56-4.12-2.77c0-0.6,0.38-1.45,0.38-2.13
		c0-0.23-0.04-0.45-0.17-0.62c2.05,0.77,1.32,2.13,2.58,3.54c0.79,0.9,2.96,1.75,4.22,5.44c0.02-0.11,0.04-0.38,0.04-0.57
		c0-3.16-4.18-6.25-4.54-7.53c2.43,0.28,2.86,0.87,4.01,4.07C59.92,32.45,60.69,34.09,60.69,34.9L60.69,34.9z M14.86,17.51
		c0.11-0.34,0.19-0.77,0.19-1.24c0-1.03-0.47-2.58-1.92-2.58c-0.83,0-1.43,0.66-1.43,1.45C11.7,16.83,13.39,17.51,14.86,17.51
		L14.86,17.51z M13.04,22.89c-0.7,0-1.47-0.87-1.47-1.66c0-0.43,0.32-0.96,0.55-0.96c0.09,0,0.13,0.06,0.15,0.21
		c0.13,1.05,0.81,1.64,1.45,1.94c0.06,0.04,0.11,0.06,0.11,0.11C13.83,22.67,13.43,22.89,13.04,22.89L13.04,22.89z M15.56,20.88
		c0,0.3-0.17,0.68-0.51,0.68c-0.75,0-1.34-1.13-1.34-1.77c0-0.4,0.23-0.45,0.56-0.45c0.15,0,0.21,0.02,0.32,0.09
		c0.19,0.11,0.19,0.53,0.43,0.85C15.13,20.5,15.56,20.73,15.56,20.88L15.56,20.88z M14.81,18.64c-0.13-0.02-0.3-0.02-0.47-0.02
		c-0.7,0-1.64,0.13-2.47,0.68c-1.88,1.22-1.58,3.14-1.88,3.63c-0.04,0.06-0.06,0.15-0.06,0.24c0,0.19,0.21,0.4,0.41,0.4
		c0.17,0,0.28-0.04,0.36-0.04c0.51,0,1.09,0.36,1.92,0.36c0.49,0,1.07-0.15,1.79-0.51c1.54-0.77,2.13-2.67,2.13-2.99
		c0-0.41-0.32-0.34-0.6-0.73c-0.3-0.45-0.15-0.62-0.34-0.87C15.48,18.69,15.2,18.69,14.81,18.64L14.81,18.64z M17.08,22.08
		c-0.47,0.55-0.96,1.49-0.96,2.45c0,1.15,0.7,2.11,1.79,2.11c1.05,0,1.54-0.9,1.54-1.81C19.44,23.4,18.14,22.4,17.08,22.08
		L17.08,22.08z M12.51,17.98c0,0-0.62,0.47-1.39,0.47c-0.92,0-1.64-0.68-1.64-1.64c0-0.66,0.34-1.34,1.13-1.69
		c-0.02,0.13-0.02,0.23-0.02,0.36C10.59,16.7,11.27,17.62,12.51,17.98L12.51,17.98z M50.47,30.4c0-0.43,0.38-0.79,0.81-0.79
		c0.47,0,0.83,0.36,0.83,0.79c0,0.49-0.36,0.83-0.83,0.83C50.85,31.23,50.47,30.89,50.47,30.4L50.47,30.4z M51.02,54.93
		c0.11,0,0.23,0.06,0.23,0.45c0,0.47-0.21,1.09-0.98,1.58c-0.53,0.36-1.26,0.66-2.33,0.68c0.17-0.51,0.3-1.05,0.3-1.56
		c0-0.17-0.02-0.3-0.04-0.49h0.28C50.17,55.6,50.89,54.93,51.02,54.93L51.02,54.93z M51.19,52.82c0.17-0.15,0.21-0.38,0.21-0.62
		v-0.49c0-0.62-0.94-0.98-2.22-0.98c-1.56,0-2.39,0.7-2.39,1v0.98c0,0.41,0.94,0.81,2.09,0.81C49.8,53.52,50.64,53.29,51.19,52.82
		L51.19,52.82z M52.3,53.06c-0.56,0.43-1.85,1.39-4.01,1.39c-1.15,0-1.66-0.36-1.84-0.36c-0.21,0-0.45,0.21-0.68,0.49
		c-0.51,0.6-1.17,1.71-1.17,2.92c0,0.85,0.66,1.71,1.9,1.71c3.99,0,6.98-2.5,6.98-4.52C53.47,53.52,52.79,53.06,52.3,53.06
		L52.3,53.06z M53.05,35.11c0,0.53,0.17,1.15,0.71,1.15c0.45,0,0.83-0.68,0.83-1.43c0-0.85-0.15-1.52-0.15-1.86
		c0-0.15,0.06-0.21,0.15-0.21c0.32,0.02,0.62,0.9,0.96,0.9c0.38,0,0.96-0.7,1.19-0.7c0.06,0,0.09,0.09,0.09,0.11
		c0,0.32-0.49,1.02-0.49,1.3c0,0.23,1.24,0.28,1.24,0.49c0,0.32-1.3,0.32-1.92,0.6c-0.6,0.26-0.96,0.58-0.96,1
		c0,0.43,0.43,0.51,1.02,0.51c1.43,0,2.43-0.77,2.75-0.77c0.06,0,0.11,0.04,0.11,0.11c0,0.21-0.73,0.92-0.73,1.24
		c0,0.36,1.32,0.79,1.3,1c-0.02,0.06-0.11,0.08-0.26,0.08c-0.23,0-0.6-0.06-0.87-0.06c-0.17,0-0.32,0.02-0.38,0.11
		c-0.15,0.17,0.04,1.3-0.26,1.3c-0.28,0-1-2.52-2.64-2.52c-0.23,0-0.41,0.19-0.41,0.51c0,0.85,0.83,1.83,1.62,2.3
		c0.36,0.24,0.96,0.47,0.96,0.6c0,0.25-1.36,0.02-1.36,0.45c0,0.39,0.17,0.96,0.17,1.3c0,0.11-0.02,0.23-0.15,0.23
		c-0.25,0-0.87-1.17-1.17-1.17c-0.25,0-0.81,0.7-1.05,0.7c-0.06,0-0.11-0.06-0.11-0.13c0-0.49,0.79-1.6,0.79-2.69
		c0-0.51-0.06-1.62-0.68-1.62c-0.51,0-1.09,0.81-1.35,1.62c-0.15,0.47-0.04,2.28-0.38,2.28c-0.32,0-0.24-1.22-0.66-1.22
		c-0.32,0-1,0.58-1.24,0.58c-0.04,0-0.08-0.02-0.08-0.06c0-0.25,0.62-1.09,0.62-1.26c0-0.32-1.41-0.36-1.41-0.62
		c0-0.15,0.55-0.26,1.07-0.34c1.09-0.19,2.69-0.98,2.69-2.09c0-1.24-1.2-1.77-1.98-2.28c-0.41-0.26-0.85-0.47-0.85-0.64
		s0.51-0.17,0.73-0.17c0.32,0,0.64-0.02,0.64-0.28c0-0.19-0.04-0.57-0.04-0.87c0-0.21,0.02-0.38,0.11-0.38
		c0.32,0,0.77,1.04,0.98,1.04c0.34,0,0.81-0.85,1.13-0.85c0.11,0,0.15,0.06,0.15,0.26C53.45,33.45,53.05,34.34,53.05,35.11
		L53.05,35.11z M42.87,28.86c0.24,1.81,2.67,0.89,2.67,3.09c0,0.32-0.09,0.79-0.09,1.19c0,0.47,0.04,0.87,0.41,0.87
		c0.36,0,0.45-0.26,0.45-0.6c0-0.34-0.09-0.77-0.09-1c0-0.75,0.53-0.92,0.85-0.92c0.81,0,1.43,0.83,2.65,0.83
		c-0.28,1.37-3.09,1-3.09,2.5c0,0.75,0.75,0.92,1.24,0.92c0.45,0,0.6-0.06,0.6-0.45c0-0.21-0.04-0.45-0.04-0.6
		c0-0.09,0.06-0.17,0.17-0.17c0.47,0,2.77,1.75,2.77,2.28c0,0.49-2.43,0.98-3.14,0.98c-0.21,0-0.26-0.15-0.26-0.23
		c0-0.15,0.36-0.6,0.36-0.85c0-0.19-0.32-0.32-1.17-0.32c-0.41,0-0.7,0.04-0.7,0.36c0,0.58,0.94,1.28,0.94,1.81
		c0,0.43-0.26,0.68-0.94,0.68c-0.58,0-1.45-0.45-1.45-1.19c0-0.6,0.62-1.2,0.62-1.56c0-0.11-0.09-0.28-0.34-0.28
		c-0.79,0-1,2.09-3.8,2.33c0.45-0.4,0.83-0.85,0.83-1.77c0-0.45-0.11-0.81-0.11-1.3c0-0.64,0.3-0.96,0.73-0.96
		c0.79,0,1.17,1.11,1.69,1.11c0.28,0,0.58-0.25,0.58-0.64c0-1.62-3.11-1.39-3.11-3.67C42.08,30.7,42.29,29.93,42.87,28.86
		L42.87,28.86z M46.92,42.73c0,0.3,0.21,0.53,0.51,0.53c0.34,0,0.56-0.3,0.56-0.64c0-0.45-0.41-1.07-0.79-1.07
		c-0.17,0-0.11,0.26-0.15,0.53C47.03,42.3,46.92,42.56,46.92,42.73L46.92,42.73z M45.81,39.89c2.24,0.43,3.46,2.11,3.46,3.69
		c0,1.09-0.68,2.09-1.88,2.09c-1.09,0-1.88-0.75-1.88-1.94c0-0.9,0.71-1.84,0.71-2.75C46.22,40.62,46.11,40.25,45.81,39.89
		L45.81,39.89z M42.98,43.52c0.21,0.21,0.28,0.43,0.28,0.64c0,0.32-0.15,0.66-0.15,1.02c0,0.51,0.38,0.96,0.94,0.96
		c0.6,0,1-0.47,1-1.02C45.05,44.31,44.21,43.52,42.98,43.52L42.98,43.52z M50.04,42.15c0.15,0.23,0.21,0.47,0.21,0.68
		c0,0.6-0.41,1.15-0.41,1.77c0,0.7,0.53,1.28,1.34,1.28c0.88,0,1.47-0.7,1.47-1.54C52.66,43.22,51.64,42.26,50.04,42.15L50.04,42.15
		z M43.49,41.02c0.98,0.13,1.22,0.47,1.22,0.75c0,0.47-0.43,0.62-0.83,0.62c-0.3,0-0.64-0.06-1-0.06c-0.47,0-0.94,0.11-1.32,0.56
		c0.28,0.04,0.68,0.23,0.68,0.66c0,1.24-3.44,0.21-3.44,3.39c0,1.69,1.75,3.52,4.4,3.52c1.37,0,2.24-0.45,2.24-0.96
		c0-0.41-0.73-0.13-0.73-0.47c0-0.15,0.26-0.43,0.26-0.66c0-0.11-0.09-0.3-0.26-0.3c-0.38,0-1.11,0.62-2.58,0.62
		c-1.15,0-2.28-0.66-2.28-1.56c0-0.19,0.09-0.3,0.21-0.3c0.13,0,0.3,0.09,0.45,0.09c0.13,0,0.15-0.09,0.15-0.32
		c0-0.23,0-0.9,0.41-0.9c0.4,0,1.17,1.49,4.12,1.49c0.98,0,2.88-0.19,3.58-0.83c-0.02,2.35-1.86,5.44-5.7,5.44
		c-3.99,0-6.12-3.2-6.12-6.14c0-3.26,2.67-6.23,6.32-6.23c0.94,0,1.73,0.32,1.73,0.73C44.98,40.7,43.59,40.36,43.49,41.02
		L43.49,41.02z M28.04,19.18c0-0.36-0.09-0.45-0.17-0.45c-0.21,0-0.45,0.26-0.79,0.83c0.04,0.77,0.17,1.11,0.38,1.11
		C27.7,20.67,28.04,19.92,28.04,19.18L28.04,19.18z M25.12,20.05c0.24,0,0.53-0.26,1.09-0.87c0.04-0.28,0.04-0.53,0.04-0.85
		c0-0.43-0.17-0.9-0.43-0.9c-0.64,0-0.96,1.71-0.96,2.15C24.86,19.84,24.99,20.05,25.12,20.05L25.12,20.05z M28.6,21.95
		c0.53,0,1.13-2.05,1.13-3.33c0-0.28-0.04-0.58-0.17-0.58c-0.45,0-1.2,2.11-1.2,3.26C28.36,21.76,28.47,21.95,28.6,21.95L28.6,21.95
		z M23.37,20.78c0.73,0,1.56-3.93,1.56-4.59c0-0.17-0.06-0.3-0.21-0.3c-0.66,0-1.58,3.73-1.58,4.56
		C23.13,20.61,23.18,20.78,23.37,20.78L23.37,20.78z M25.7,22.4c-0.92,0-0.96,1.11-0.96,3.35c-0.68-1.47-1.81-3.05-3.14-3.05
		c-0.9,0-1.24,0.6-1.24,1.64c0,0.21,0.02,0.53,0.06,0.73c0.11-0.36,0.45-0.51,0.88-0.51c0.92,0,2.03,0.7,2.75,1.66
		c-0.83-0.15-1.64-0.3-2.33-0.3c-0.43,0-0.81,0.04-1.13,0.19c-0.62,0.28-1.45,1.19-1.45,2.58c0,0.21,0.02,0.45,0.07,0.7
		c0.75-1.66,2.73-2.41,4.01-2.41c0.26,0,0.45,0.02,0.6,0.04c-0.66,0.6-0.81,1.64-0.85,2.35c-0.02,0.34-0.15,0.36-0.38,0.36
		c0,0.7,0.55,1.75,0.55,2.28c0,0.19-0.11,0.36-0.21,0.41c0,0.94,0.94,1.62,0.94,2.22c0,0.15-0.04,0.28-0.11,0.34
		c0.06,0.38,1.09,1.05,1.22,1.32c0.21,0.45,0.36,0.49,0.47,0.49c0.36,0,0.94-0.43,0.94-0.81c0-0.13-0.11-0.28-0.19-0.34
		c-0.41-0.3-0.62-0.94-0.79-1.37c-0.15,0-0.34-0.09-0.4-0.3c-0.09-0.28-0.13-1.28-0.3-1.77c-0.28-0.06-0.41-0.17-0.41-0.75
		c0-0.28,0.17-1.37,0.17-1.75c-0.13,0-0.3-0.09-0.3-0.34c0-0.68,0.68-1.22,0.88-2.09c1.22,0.9,1.51,1.81,1.51,2.62
		c0,0.43-0.06,0.83-0.15,1.22c0.9-0.45,2.24-1.11,2.24-2.45c0-0.79-0.36-1.66-2.77-2.01c0.75-0.28,1.69-0.43,2.48-0.43
		c1.37,0,2.15,0.43,2.33,1.39c0.28-0.43,0.49-0.92,0.49-1.36c0-1.05-0.87-1.73-1.98-1.73c-1.3,0-2.45,0.68-3.69,1.51
		c0.56-1.15,0.94-1.83,1.62-1.83c0.11,0,0.21,0.02,0.32,0.04C27.17,23.31,26.21,22.4,25.7,22.4L25.7,22.4z M12.08,9.11
		c0,0.43-1.62,1.86-2.2,1.86c-0.21,0-0.28-0.26-0.28-0.49c0-0.43,0.19-1.03,0.43-1.22c0.28-0.26,0.92-0.38,1.41-0.38
		C11.74,8.87,12.08,8.93,12.08,9.11L12.08,9.11z M61.64,37.78c1.07,0,1.92,1.39,1.92,3.01c0,1.73-0.81,3.61-2.26,4.88
		c-0.02-2.88-3.54-1.96-3.54-4.05c0-0.89,0.64-1.49,1.41-1.49c0.68,0,1.22,0.19,1.6,0.58c-0.38-0.36-0.58-0.87-0.58-1.37
		C60.19,38.53,60.71,37.78,61.64,37.78L61.64,37.78z M45.81,15.96c-0.17-0.28-0.81-0.43-1.11-0.43c-0.94,0-1.58,0.66-1.71,1.26
		c-0.08-0.21-0.15-0.47-0.15-0.73c0-0.94,0.64-2.09,2.2-2.09c1.37,0,1.9,0.72,2.09,0.72c0.21,0,0.43-0.21,0.6-0.21
		c0.23,0,0.23,0.36,0.23,0.62c0,0.85-0.38,2.33-1.34,2.86c-0.17-0.36-0.51-0.77-1.07-1.02c-0.15-0.06-0.21-0.19-0.21-0.32
		C45.34,16.38,45.56,16.08,45.81,15.96L45.81,15.96z M42.59,17.51c0.56,0.53,1.05,0.77,1.64,0.77c0.23,0,0.51-0.06,0.66-0.06
		c0.19,0,0.32,0.09,0.32,0.24c0,0.23-0.21,0.62-0.47,0.83c0.26,0.11,0.53,0.15,0.83,0.15c1.22,0,2.6-0.77,2.6-2.69
		c0.26,0.34,0.41,1.05,0.41,1.36c0,2.33-1.71,3.22-3.29,3.22c-1.03,0-1.54-0.34-1.66-0.34c-0.4,0-0.38,0.81-0.66,0.79
		c-0.49-0.09-0.94-1.17-0.94-2.33C42.04,18.77,42.21,18.05,42.59,17.51L42.59,17.51z M27.77,11.3c0,0.75,2.67,4.39,3.18,4.39
		c0.43,0,0.75-0.75,0.75-1.39c0-0.17-0.04-0.34-0.13-0.47c-0.38-0.53-3.09-2.67-3.69-2.67C27.81,11.18,27.77,11.24,27.77,11.3
		L27.77,11.3z M58.55,9.55c0-1.51-3.63-1.9-3.63-2.24c0-0.28,2.03-0.75,3.07-0.77c-1.6-2.05-3.88-1.83-3.88-2.2
		c0-0.21,1.71-0.64,3.29-0.64c1.32,0,2.56,0.3,2.56,1.3c0,0.55-0.45,1.13-0.45,1.98c0,0.47,0.24,0.88,0.85,0.88
		c0.66,0,0.81-0.7,0.81-1.45c0-0.62-0.11-1.09-0.11-1.39c0-0.9,0.62-1.49,1.49-1.49c0.73,0,0.9,0.32,1.96,0.32
		c-0.58,0.34-0.79,0.96-0.79,1.26c0,0.9,0.58,1.51,0.58,3.35c0,3.37-3.16,4.57-7.02,4.57c-1.07,0-2.2-0.09-3.31-0.26
		c-0.17-0.02-0.21-0.06-0.21-0.17c0-0.28,1.52-0.43,1.52-1.79c0-0.53-0.17-1.05-0.17-1.24c0-0.11,0.09-0.17,0.17-0.17
		c0.32,0,0.96,1.24,2.15,1.24C57.76,10.64,58.55,10.54,58.55,9.55L58.55,9.55z M62.15,7.4c0,1.9-1.38,3.35-3.88,3.76
		c0.28,0.02,0.53,0.02,0.79,0.02c2.92,0,3.99-1.32,3.99-2.43C63.05,8.13,62.71,7.57,62.15,7.4L62.15,7.4z M60.13,24.55
		c0-0.45-1.13-0.49-1.24-1.75c-0.02-0.19-0.09-0.53-0.32-0.53c-0.38,0-0.09,1.17-0.51,1.17c-0.98,0-1.3-1.92-1.67-1.92
		c-0.09,0-0.19,0.06-0.19,0.32c0,0.23,0.04,0.38,0.04,0.66c0,0.28-0.07,0.47-0.32,0.47c-0.58,0-1.09-1.34-1.58-1.34
		c-0.11,0-0.21,0.06-0.21,0.17c0,0.26,0.43,0.73,0.43,0.96c0,0.51-1.39,0.23-1.39,0.66c0,0.19,0.19,0.26,0.45,0.26
		c0.45,0,1.15-0.19,1.51-0.19c0.21,0,0.54,0.04,0.54,0.32c0,0.3-0.77,0.68-0.77,0.96c0,0.13,0.13,0.19,0.23,0.19
		c0.58,0,1.6-1,2.32-1c0.13,0,0.45,0.06,0.45,0.26c0,0.28-0.73,0.77-0.73,1.17c0,0.11,0.07,0.24,0.19,0.24c0.38,0,0.9-1,1.62-1
		c0.28,0,0.68,0.11,0.9,0.11C60.07,24.72,60.13,24.62,60.13,24.55L60.13,24.55z M44.85,8.27c0-0.23-0.83-0.68-0.83-0.94
		c0-0.04,0.04-0.06,0.11-0.06c0.23,0,0.64,0.09,0.96,0.09c0.28,0,0.32-1.19,0.53-1.19c0.15,0,0.41,1.13,0.64,1.13
		c0.28,0,0.79-0.32,1-0.32c0.04,0,0.08,0.02,0.08,0.06c0,0.15-0.53,0.73-0.53,0.9c0,0.19,1.2,0.43,1.2,0.6
		c0,0.21-1.22,0.19-1.22,0.38c0,0.15,0.45,0.75,0.45,0.94c0,0.04-0.02,0.06-0.06,0.06c-0.17,0-0.83-0.3-1.02-0.3
		c-0.23,0-0.62,0.88-0.81,0.88c-0.06,0-0.11-0.09-0.11-0.19l-0.04-0.85c0-0.09-0.04-0.17-0.15-0.17c-0.26,0-0.75-0.02-0.9-0.02
		C44.04,9.26,44,9.23,44,9.19C44,9.02,44.85,8.42,44.85,8.27L44.85,8.27z M49.01,12.33c-1.49,0-2.47-0.75-2.47-1.13
		c0-0.19,0.13-0.32,0.3-0.32c0.47,0,1.49,0.72,1.84,0.72c0.08,0,0.15-0.04,0.15-0.17c0-0.38-0.36-1.02-0.36-1.34
		c0-0.08,0.06-0.15,0.19-0.15c0.58,0,1.43,0.23,1.88,0.23c0.15,0,0.19-0.09,0.19-0.17c0-0.47-1.39-1.39-1.39-1.66
		c0-0.26,1.73-0.64,1.73-1.05c0-0.43-2.35-0.13-2.35-0.53c0-0.3,0.45-0.81,0.45-1.04c0-0.11-0.08-0.15-0.23-0.15
		c-0.19,0-1.22,0.41-1.64,0.41c-0.21,0-0.47-0.04-0.47-0.34c0-0.49,0.83-1.03,2.14-1.03c2.11,0,3.37,1.45,3.37,3.88
		C52.32,11.56,50.17,12.33,49.01,12.33L49.01,12.33z M34.57,49.24c0,0.19-0.06,0.41-0.23,0.62c-0.23-0.43-0.9-0.64-1.19-0.64
		c-2.2,0-1.37,3.18-3.71,3.18c-0.98,0-1.07-0.13-1.43-0.13c-0.15,0-0.24,0.06-0.24,0.19c0,0.55,0.79,1.92,2.99,1.92
		c2.2,0,4.31-1.35,4.31-3.01c0-0.28-0.06-0.58-0.19-0.87c0.09-0.13,0.3-0.21,0.49-0.21c0.34,0,0.53,0.39,0.85,0.39
		c0.34,0,0.6-0.26,0.6-0.6c0-0.28-0.15-0.47-0.41-0.6c0.17-0.13,0.3-0.34,0.3-0.57c0-0.36-0.26-0.7-0.68-0.7
		c-0.19,0-0.32,0.06-0.47,0.21c-0.04-0.38-0.26-0.75-0.66-0.75c-0.32,0-0.55,0.23-0.55,0.6C34.34,48.6,34.57,48.87,34.57,49.24
		L34.57,49.24z M28.83,50.05c-0.64,0-1.6-0.68-1.6-1.07c0-0.32,0.3-0.49,0.53-0.49c0.53,0,1.49,0.66,1.49,1.22
		C29.26,49.86,29.15,50.05,28.83,50.05L28.83,50.05z M22.88,45.27c1.71,0.43,2.56,1.35,2.73,2.43c0.17,1.05,0.38,1.9,0.79,2.33
		c0.53,0.6,1.58,1.13,2.5,1.13c0.77,0,1.39-0.25,1.39-0.96c0-0.77-1.05-2.5-2.58-2.5c-0.15,0-0.34,0.02-0.55,0.02
		c-0.19,0-0.47-0.04-0.64-0.19c-0.34-0.3-0.45-1.9-1.09-2.86c-0.7-1.07-1.47-1.37-2.52-1.37c-0.75,0-1.58,0.41-1.58,1
		C21.32,44.67,21.51,44.93,22.88,45.27L22.88,45.27z M33.59,42.67c0-0.96-1.98-0.98-1.98-2.43c0-0.36,0.23-0.98,0.7-1.64
		c0.19,1.11,0.64,1.69,1.6,2.05c1.9,0.7,2.16,1.77,2.16,2.9c0,1.92-1.34,4.31-4.8,4.31c-2.77,0-4.76-2.48-4.76-4.57
		c0-0.58,0.15-1.22,0.51-1.22c0.32,0,0.43,0.26,0.68,0.51c0.96,0.96,2.01,1.22,3.52,1.22C32.59,43.8,33.59,43.24,33.59,42.67
		L33.59,42.67z M33.67,44.2c-0.75,0.3-1.02,0.28-1.02,1.02c0,0.28-0.06,0.64-0.06,0.83c0,0.26,0.04,0.41,0.34,0.41
		c0.77,0,1.98-1.3,1.98-2.41c0-0.3-0.17-0.43-0.36-0.43C34.38,43.63,34.19,43.97,33.67,44.2L33.67,44.2z M26.87,33.43
		c0-1.36,3.24-2.09,3.24-3.78c0-0.28-0.11-0.77-0.3-1.13c1.13,0.62,1.96,1.67,1.96,2.52c0,1.47-1.54,2.15-1.54,3.07
		c0,1.07,1.64,1.24,1.64,2.56c0,1.09-1.56,2.35-1.56,3.76c0,1.09,0.77,1.98,1.94,2.13c-0.38,0.09-0.73,0.15-1.09,0.15
		c-2.15,0-4.37-1.77-4.37-3.88c0-1.05,0.45-1.96,1.13-2.62c0.6,0.51,1.19,0.85,1.58,0.85c0.34,0,0.49-0.17,0.49-0.43
		C30.01,35.84,26.87,35.11,26.87,33.43L26.87,33.43z"/>
	<path class="st0" d="M31.27,79.07c0.6,0,1.64-0.2,2.46-1.5c-0.47-1.03-0.8-3.13-0.85-3.89c-0.24-3.9,1.26-7.56,2.91-7.66
		c1.2-0.07,2.17,1.07,2.28,2.91c0.3,4.86-1.32,6.89-2.13,8.63c0.14,0.68,1.28,1.83,2.37,1.83c0.4,0,0.88-0.2,1.01-0.36
		c-0.08-0.28-0.16-0.64-0.16-1.16c0-2.81,1.81-5.19,3.38-5.19c1.25,0,1.97,1.65,1.97,2.74c0,1.28-1.08,2.33-2.69,3.34
		c0.28,0.28,0.8,0.48,1.25,0.48c2.29,0,3.5-2.77,4.38-5.31c0.16-0.48,0.44-1.17,1-1.17c0.97,0,1.37,6.35,2.98,6.35
		c0.69,0,1.25-1.41,1.25-2.49c0-0.81-0.28-0.89-0.28-2.05c0-1.28,0.68-2.37,1.61-2.37c0.56,0,0.76,0.56,0.76,1.25
		c0,2.57-1.85,7.36-4.58,7.36c-2.05,0-1.89-3.54-2.61-3.54c-0.81,0-1.93,3.58-5.91,3.58c-0.65,0-1.33-0.32-1.89-0.97
		c-0.97,0.65-1.77,0.93-2.7,0.93c-1.49,0-2.13-1.53-2.73-1.53c-0.73,0-1.53,1.57-3.94,1.57c-1.93,0-2.25-2.57-2.93-2.57
		c-0.6,0-1.53,2.57-2.53,2.57c-1.69,0-2.05-4.46-3.54-4.46c-1.17,0-4.85,4.53-5.85,4.43c-0.4-0.04-0.57-0.34-0.53-0.75
		c0.06-0.56,0.53-2.04,0.73-2.75c0.33-1.22,0.62-2.56,0.79-2.99c0.17-0.43,0.61-0.74,0.97-0.7c0.18,0.02,0.23,0.35,0.29,0.63
		c0.2,1,0.49,2.01,0.81,2.01c0.56,0,2.43-3.58,3.51-3.58c1.33,0,1.49,5.63,3.3,5.63c0.6,0,1.05-0.72,1.45-1.61
		c0.04-1.49,0.44-3.62,1.65-3.62c0.85,0,1.25,1.89,0.64,3.54C29.14,78.59,30.42,79.07,31.27,79.07L31.27,79.07z M61.26,75.29
		c0-1-0.92-2.41-2.29-2.41c-1.81,0-3.58,1.97-3.58,4.7c0,2.45,1.52,3.26,3.05,3.26c2.65,0,4.26-2.18,5.11-3.98
		c0.4,1.21,0.64,3.98,1.65,3.98c0.4,0,0.68-0.2,1.17-1.29c1.2-2.69,2.37-5.79,3.98-5.79c0.6,0,0.24,1.09,1.69,1.09
		c0.68,0,1.16-0.56,1.16-1.21c0-0.92-0.84-1.65-2.13-1.65c-3.78,0-4.58,5.67-5.19,5.67c-1.01,0-0.68-4.54-1.41-4.54
		c-0.64,0-0.97,0.76-1.05,1.12c-0.52,2.09-2.01,5.11-4.26,5.11c-0.52,0-1.45-0.2-1.45-0.73C57.73,78.06,61.26,77.99,61.26,75.29
		L61.26,75.29z M36.76,70.01c-0.07-1.12-0.34-1.63-0.94-1.59c-0.8,0.05-1.17,2.57-1.01,5.21c0.1,1.73,0.36,1.99,0.6,1.98
		C35.85,75.59,36.91,72.5,36.76,70.01L36.76,70.01z M30.22,67.65c-0.04-0.65-0.56-1.09-1.24-1.09c-0.76,0-1.49,0.8-1.41,1.81
		c0,0.6,0.44,1.21,1.21,1.21C29.66,69.58,30.31,68.58,30.22,67.65L30.22,67.65z M42.73,75.85c0-0.68-0.36-1.25-0.8-1.25
		c-0.36,0-1.21,0.4-1.21,1.69c0,1.01,0.36,1.49,0.52,1.69C42.41,77.62,42.73,76.66,42.73,75.85L42.73,75.85z M58.45,74.49
		c0.85,0,1.09,1,0.89,1.61c-0.2,0.6-0.93,1.29-2.05,1.49C57.04,76.98,56.92,74.49,58.45,74.49L58.45,74.49z M3.15,75.13
		c-0.04-1.65,0.04-3.3,0.73-5.63c0.36-1.24,0.68-1.69,1.81-1.93c0.88-0.16,0.81,0.76,0.6,1.85C5.84,71.83,5.64,73,5.8,75.73
		c0.16,2.89,1.49,4.02,2.93,4.02c2.17,0.04,3.14-1.77,3.54-4.38c0.32-2.09,0.08-3.1-0.12-3.74c-0.12-0.36-0.44-1.17-0.56-1.77
		c-0.16-1.53,0.56-2.25,1.17-2.45c0.72-0.2,1.01,0.16,1.29,1.01c0.36,1.29,0.4,2.97,0.28,5.38c-0.16,3.3-1.81,7.28-5.91,7.2
		C4.88,80.92,3.31,78.63,3.15,75.13L3.15,75.13z"/>
</g>
</svg>
