<svg width="204" height="30" viewBox="0 0 204 30" fill="none" xmlns="http://www.w3.org/2000/svg">
<path d="M43.0625 18.25C43.8854 18.25 44.5911 18.2839 45.1797 18.3516C45.7682 18.4193 46.263 18.5208 46.6641 18.6562C47.0703 18.7865 47.3932 18.9505 47.6328 19.1484C47.8724 19.3464 48.0573 19.5729 48.1875 19.8281C48.3177 20.0781 48.401 20.3594 48.4375 20.6719C48.4792 20.9844 48.5 21.3229 48.5 21.6875C48.5 22.0521 48.4661 22.3958 48.3984 22.7188C48.3359 23.0365 48.2214 23.3281 48.0547 23.5938C47.888 23.8594 47.6615 24.0964 47.375 24.3047C47.0885 24.513 46.724 24.6901 46.2812 24.8359C45.8385 24.9818 45.3047 25.0911 44.6797 25.1641C44.0599 25.2422 43.3333 25.2812 42.5 25.2812H40.5C39.75 25.2812 39.0938 25.2526 38.5312 25.1953C37.9688 25.138 37.4844 25.0521 37.0781 24.9375C36.6719 24.8177 36.3359 24.6693 36.0703 24.4922C35.8047 24.3099 35.5911 24.099 35.4297 23.8594C35.2734 23.6146 35.1641 23.3385 35.1016 23.0312C35.0391 22.7188 35.0078 22.375 35.0078 22H36.5078C36.5078 22.4688 36.5755 22.8359 36.7109 23.1016C36.8464 23.3672 37.0703 23.5677 37.3828 23.7031C37.6953 23.8333 38.1042 23.9167 38.6094 23.9531C39.1198 23.9844 39.75 24 40.5 24H42.5C43.375 24 44.1016 23.9583 44.6797 23.875C45.2578 23.7917 45.7188 23.6589 46.0625 23.4766C46.4062 23.2943 46.6484 23.0573 46.7891 22.7656C46.9297 22.4688 47 22.1094 47 21.6875C47 21.2656 46.9505 20.9141 46.8516 20.6328C46.7578 20.3516 46.5677 20.1276 46.2812 19.9609C46 19.7943 45.6016 19.6771 45.0859 19.6094C44.5703 19.5365 43.8958 19.5 43.0625 19.5H41C40.0833 19.5 39.2969 19.4661 38.6406 19.3984C37.9896 19.3307 37.4427 19.2344 37 19.1094C36.5573 18.9792 36.2031 18.8203 35.9375 18.6328C35.6719 18.4401 35.4688 18.2214 35.3281 17.9766C35.1927 17.7318 35.1042 17.4609 35.0625 17.1641C35.0208 16.862 35 16.5365 35 16.1875C35 15.8229 35.0312 15.4844 35.0938 15.1719C35.1615 14.8594 35.2839 14.5781 35.4609 14.3281C35.638 14.0729 35.8802 13.8464 36.1875 13.6484C36.4948 13.4505 36.888 13.2865 37.3672 13.1562C37.8516 13.0208 38.4323 12.9193 39.1094 12.8516C39.7865 12.7839 40.5833 12.75 41.5 12.75H43C43.75 12.75 44.4062 12.7786 44.9688 12.8359C45.5312 12.888 46.0156 12.974 46.4219 13.0938C46.8281 13.2083 47.1641 13.3542 47.4297 13.5312C47.7005 13.7031 47.9141 13.9115 48.0703 14.1562C48.2318 14.3958 48.3438 14.6693 48.4062 14.9766C48.4688 15.2839 48.5 15.625 48.5 16H47C47 15.5312 46.9323 15.1641 46.7969 14.8984C46.6615 14.6328 46.4375 14.4349 46.125 14.3047C45.8125 14.1693 45.401 14.0859 44.8906 14.0547C44.3802 14.0182 43.75 14 43 14H41.5C40.5 14 39.6771 14.0365 39.0312 14.1094C38.3854 14.1771 37.875 14.2943 37.5 14.4609C37.125 14.6276 36.8646 14.8516 36.7188 15.1328C36.5729 15.4141 36.5 15.7656 36.5 16.1875C36.5 16.4479 36.5182 16.6797 36.5547 16.8828C36.5911 17.0859 36.6641 17.2656 36.7734 17.4219C36.888 17.5729 37.0469 17.7005 37.25 17.8047C37.4531 17.9089 37.7214 17.9948 38.0547 18.0625C38.388 18.1302 38.7943 18.1797 39.2734 18.2109C39.7578 18.237 40.3333 18.25 41 18.25H43.0625ZM52.0078 16V21C52.0078 21.5573 52.0495 22.0286 52.1328 22.4141C52.2161 22.7943 52.3828 23.1016 52.6328 23.3359C52.8828 23.5703 53.237 23.7396 53.6953 23.8438C54.1536 23.9479 54.7578 24 55.5078 24C56.3203 24 56.9844 23.9401 57.5 23.8203C58.0208 23.7005 58.4297 23.5312 58.7266 23.3125C59.0234 23.0938 59.2266 22.8307 59.3359 22.5234C59.4505 22.2161 59.5078 21.875 59.5078 21.5V16H61.0078V25H59.5078V23.5C59.4349 23.6615 59.3125 23.8411 59.1406 24.0391C58.9688 24.2318 58.7109 24.4115 58.3672 24.5781C58.0234 24.7448 57.5781 24.8854 57.0312 25C56.4896 25.1146 55.8151 25.1719 55.0078 25.1719C54.3359 25.1719 53.7578 25.1302 53.2734 25.0469C52.7943 24.9688 52.3854 24.8516 52.0469 24.6953C51.7135 24.5339 51.4453 24.3359 51.2422 24.1016C51.0391 23.8672 50.8828 23.5964 50.7734 23.2891C50.6641 22.9766 50.5911 22.6302 50.5547 22.25C50.5182 21.8698 50.5 21.4531 50.5 21L50.5078 16H52.0078ZM68.5156 15.75C69.5156 15.75 70.3646 15.8255 71.0625 15.9766C71.7604 16.1276 72.3281 16.3854 72.7656 16.75C73.2031 17.1146 73.5208 17.6042 73.7188 18.2188C73.9167 18.8281 74.0156 19.5938 74.0156 20.5156C74.0156 21.4219 73.9167 22.1745 73.7188 22.7734C73.5208 23.3724 73.2031 23.849 72.7656 24.2031C72.3281 24.5573 71.7604 24.8073 71.0625 24.9531C70.3646 25.099 69.5156 25.1719 68.5156 25.1719C67.8021 25.1719 67.2057 25.1328 66.7266 25.0547C66.2474 24.9766 65.8542 24.8802 65.5469 24.7656C65.2448 24.6458 65.013 24.5182 64.8516 24.3828C64.6953 24.2474 64.5833 24.1198 64.5156 24V28H63.0156V16H64.5156V16.8359C64.5833 16.7318 64.6953 16.6172 64.8516 16.4922C65.013 16.362 65.2448 16.2422 65.5469 16.1328C65.8542 16.0234 66.2474 15.9323 66.7266 15.8594C67.2057 15.7865 67.8021 15.75 68.5156 15.75ZM68.5156 17C68.0156 17 67.5703 17.013 67.1797 17.0391C66.7891 17.0651 66.4453 17.1198 66.1484 17.2031C65.8516 17.2812 65.599 17.3984 65.3906 17.5547C65.1875 17.7057 65.0208 17.9115 64.8906 18.1719C64.7604 18.4271 64.6641 18.7448 64.6016 19.125C64.5443 19.5052 64.5156 19.9609 64.5156 20.4922C64.5156 21.0286 64.5443 21.4896 64.6016 21.875C64.6641 22.2604 64.7604 22.5833 64.8906 22.8438C65.0208 23.099 65.1875 23.3047 65.3906 23.4609C65.599 23.612 65.8516 23.7292 66.1484 23.8125C66.4453 23.8906 66.7891 23.9427 67.1797 23.9688C67.5703 23.9896 68.0156 24 68.5156 24C69.099 24 69.6016 23.9818 70.0234 23.9453C70.4505 23.9089 70.8125 23.8438 71.1094 23.75C71.4062 23.6562 71.6458 23.526 71.8281 23.3594C72.0156 23.1927 72.1589 22.9818 72.2578 22.7266C72.362 22.4661 72.4297 22.1562 72.4609 21.7969C72.4974 21.4323 72.5156 21.0052 72.5156 20.5156C72.5156 20.026 72.4974 19.599 72.4609 19.2344C72.4297 18.8698 72.362 18.5573 72.2578 18.2969C72.1589 18.0365 72.0156 17.8229 71.8281 17.6562C71.6458 17.4896 71.4062 17.3568 71.1094 17.2578C70.8125 17.1589 70.4505 17.0911 70.0234 17.0547C69.6016 17.0182 69.099 17 68.5156 17ZM81.2656 15.75C82.2656 15.75 83.1146 15.8255 83.8125 15.9766C84.5104 16.1276 85.0781 16.3854 85.5156 16.75C85.9531 17.1146 86.2708 17.6042 86.4688 18.2188C86.6667 18.8281 86.7656 19.5938 86.7656 20.5156C86.7656 21.4219 86.6667 22.1745 86.4688 22.7734C86.2708 23.3724 85.9531 23.849 85.5156 24.2031C85.0781 24.5573 84.5104 24.8073 83.8125 24.9531C83.1146 25.099 82.2656 25.1719 81.2656 25.1719C80.5521 25.1719 79.9557 25.1328 79.4766 25.0547C78.9974 24.9766 78.6042 24.8802 78.2969 24.7656C77.9948 24.6458 77.763 24.5182 77.6016 24.3828C77.4453 24.2474 77.3333 24.1198 77.2656 24V28H75.7656V16H77.2656V16.8359C77.3333 16.7318 77.4453 16.6172 77.6016 16.4922C77.763 16.362 77.9948 16.2422 78.2969 16.1328C78.6042 16.0234 78.9974 15.9323 79.4766 15.8594C79.9557 15.7865 80.5521 15.75 81.2656 15.75ZM81.2656 17C80.7656 17 80.3203 17.013 79.9297 17.0391C79.5391 17.0651 79.1953 17.1198 78.8984 17.2031C78.6016 17.2812 78.349 17.3984 78.1406 17.5547C77.9375 17.7057 77.7708 17.9115 77.6406 18.1719C77.5104 18.4271 77.4141 18.7448 77.3516 19.125C77.2943 19.5052 77.2656 19.9609 77.2656 20.4922C77.2656 21.0286 77.2943 21.4896 77.3516 21.875C77.4141 22.2604 77.5104 22.5833 77.6406 22.8438C77.7708 23.099 77.9375 23.3047 78.1406 23.4609C78.349 23.612 78.6016 23.7292 78.8984 23.8125C79.1953 23.8906 79.5391 23.9427 79.9297 23.9688C80.3203 23.9896 80.7656 24 81.2656 24C81.849 24 82.3516 23.9818 82.7734 23.9453C83.2005 23.9089 83.5625 23.8438 83.8594 23.75C84.1562 23.6562 84.3958 23.526 84.5781 23.3594C84.7656 23.1927 84.9089 22.9818 85.0078 22.7266C85.112 22.4661 85.1797 22.1562 85.2109 21.7969C85.2474 21.4323 85.2656 21.0052 85.2656 20.5156C85.2656 20.026 85.2474 19.599 85.2109 19.2344C85.1797 18.8698 85.112 18.5573 85.0078 18.2969C84.9089 18.0365 84.7656 17.8229 84.5781 17.6562C84.3958 17.4896 84.1562 17.3568 83.8594 17.2578C83.5625 17.1589 83.2005 17.0911 82.7734 17.0547C82.3516 17.0182 81.849 17 81.2656 17ZM89.0156 13H90.5156V25H89.0156V13ZM97.2656 25L92.5156 16H94.2656L98.2656 24L102.016 16H103.766L99.2656 25L99.0156 25.5C98.8906 25.75 98.7656 25.9844 98.6406 26.2031C98.5208 26.4271 98.3828 26.6302 98.2266 26.8125C98.0703 27 97.8854 27.1667 97.6719 27.3125C97.4583 27.4583 97.1953 27.5807 96.8828 27.6797C96.5755 27.7839 96.2083 27.862 95.7812 27.9141C95.3542 27.9714 94.849 28 94.2656 28V26.75C94.7656 26.75 95.1875 26.7292 95.5312 26.6875C95.875 26.651 96.1615 26.5938 96.3906 26.5156C96.625 26.4427 96.8125 26.3542 96.9531 26.25C97.0938 26.1458 97.2109 26.0286 97.3047 25.8984C97.3984 25.7682 97.4766 25.6276 97.5391 25.4766C97.6068 25.3255 97.6823 25.1667 97.7656 25H97.2656ZM114.016 20.8984C113.307 20.8984 112.685 20.888 112.148 20.8672C111.612 20.8464 111.148 20.8047 110.758 20.7422C110.372 20.6745 110.049 20.5807 109.789 20.4609C109.534 20.3411 109.331 20.1823 109.18 19.9844C109.029 19.7812 108.922 19.5339 108.859 19.2422C108.797 18.9453 108.766 18.625 108.766 18.2812C108.766 17.8125 108.865 17.4193 109.062 17.1016C109.26 16.7786 109.578 16.5182 110.016 16.3203C110.453 16.1172 111.021 15.9714 111.719 15.8828C112.417 15.7943 113.266 15.75 114.266 15.75C115.255 15.75 116.07 15.8021 116.711 15.9062C117.357 16.0104 117.867 16.1719 118.242 16.3906C118.622 16.6042 118.888 16.875 119.039 17.2031C119.19 17.5312 119.266 17.9219 119.266 18.375H117.766C117.766 18.0938 117.711 17.8646 117.602 17.6875C117.497 17.5104 117.312 17.3724 117.047 17.2734C116.781 17.1693 116.422 17.099 115.969 17.0625C115.521 17.0208 114.953 17 114.266 17C113.516 17 112.885 17.0104 112.375 17.0312C111.865 17.0521 111.453 17.1042 111.141 17.1875C110.828 17.2708 110.604 17.3984 110.469 17.5703C110.333 17.7422 110.266 17.9792 110.266 18.2812C110.266 18.4583 110.276 18.6328 110.297 18.8047C110.323 18.9714 110.378 19.1094 110.461 19.2188C110.544 19.3281 110.667 19.4115 110.828 19.4688C110.99 19.526 111.208 19.5703 111.484 19.6016C111.766 19.6276 112.112 19.6432 112.523 19.6484C112.935 19.6484 113.432 19.6484 114.016 19.6484C114.724 19.6484 115.344 19.6641 115.875 19.6953C116.411 19.7266 116.875 19.7812 117.266 19.8594C117.656 19.9375 117.979 20.0573 118.234 20.2188C118.49 20.3802 118.693 20.5573 118.844 20.75C119 20.9375 119.109 21.1615 119.172 21.4219C119.234 21.6771 119.266 21.974 119.266 22.3125C119.266 22.651 119.234 22.9557 119.172 23.2266C119.109 23.4922 119 23.7292 118.844 23.9375C118.688 24.1406 118.474 24.3177 118.203 24.4688C117.938 24.6146 117.602 24.7344 117.195 24.8281C116.789 24.9167 116.302 24.9818 115.734 25.0234C115.172 25.0703 114.516 25.0938 113.766 25.0938C112.828 25.0938 112.039 25.0469 111.398 24.9531C110.763 24.8594 110.25 24.7109 109.859 24.5078C109.469 24.2995 109.188 24.0312 109.016 23.7031C108.849 23.375 108.766 22.974 108.766 22.5H110.266C110.266 22.8125 110.318 23.0677 110.422 23.2656C110.531 23.4583 110.719 23.6094 110.984 23.7188C111.25 23.8281 111.607 23.9036 112.055 23.9453C112.508 23.9818 113.078 24 113.766 24C114.391 24 114.922 23.987 115.359 23.9609C115.802 23.9297 116.172 23.8828 116.469 23.8203C116.766 23.7578 117 23.6823 117.172 23.5938C117.344 23.5052 117.474 23.3984 117.562 23.2734C117.651 23.1484 117.706 23.0104 117.727 22.8594C117.753 22.7031 117.766 22.5312 117.766 22.3438C117.766 22.1719 117.753 22.0208 117.727 21.8906C117.706 21.7552 117.654 21.6224 117.57 21.4922C117.487 21.3568 117.365 21.2552 117.203 21.1875C117.042 21.1198 116.82 21.0651 116.539 21.0234C116.263 20.9766 115.919 20.9453 115.508 20.9297C115.096 20.9089 114.599 20.8984 114.016 20.8984ZM121.016 20.4375C121.016 19.5156 121.115 18.7526 121.312 18.1484C121.51 17.5443 121.828 17.0651 122.266 16.7109C122.703 16.3568 123.271 16.1094 123.969 15.9688C124.667 15.8229 125.516 15.75 126.516 15.75C127.516 15.75 128.365 15.8229 129.062 15.9688C129.76 16.1094 130.328 16.3568 130.766 16.7109C131.203 17.0651 131.521 17.5443 131.719 18.1484C131.917 18.7526 132.016 19.5156 132.016 20.4375C132.016 21.3594 131.917 22.125 131.719 22.7344C131.521 23.3438 131.203 23.8281 130.766 24.1875C130.328 24.5469 129.76 24.8021 129.062 24.9531C128.365 25.099 127.516 25.1719 126.516 25.1719C125.516 25.1719 124.667 25.099 123.969 24.9531C123.271 24.8021 122.703 24.5469 122.266 24.1875C121.828 23.8281 121.51 23.3438 121.312 22.7344C121.115 22.125 121.016 21.3594 121.016 20.4375ZM122.516 20.4375C122.516 20.9375 122.534 21.3724 122.57 21.7422C122.607 22.112 122.674 22.4297 122.773 22.6953C122.878 22.9609 123.021 23.1771 123.203 23.3438C123.385 23.5104 123.625 23.6432 123.922 23.7422C124.219 23.8411 124.578 23.9089 125 23.9453C125.427 23.9818 125.932 24 126.516 24C127.016 24 127.461 23.9896 127.852 23.9688C128.247 23.9427 128.591 23.888 128.883 23.8047C129.18 23.7214 129.432 23.6042 129.641 23.4531C129.849 23.2969 130.016 23.0859 130.141 22.8203C130.271 22.5547 130.365 22.2292 130.422 21.8438C130.484 21.4531 130.516 20.9844 130.516 20.4375C130.516 19.901 130.484 19.4453 130.422 19.0703C130.365 18.6901 130.271 18.3724 130.141 18.1172C130.016 17.862 129.849 17.6615 129.641 17.5156C129.432 17.3646 129.18 17.2526 128.883 17.1797C128.591 17.1016 128.247 17.0521 127.852 17.0312C127.461 17.0104 127.016 17 126.516 17C126.016 17 125.568 17.0104 125.172 17.0312C124.781 17.0521 124.438 17.1016 124.141 17.1797C123.849 17.2526 123.599 17.3646 123.391 17.5156C123.182 17.6615 123.013 17.862 122.883 18.1172C122.758 18.3724 122.664 18.6901 122.602 19.0703C122.544 19.4453 122.516 19.901 122.516 20.4375ZM134.266 13H135.766V25H134.266V13ZM139.773 16V21C139.773 21.5573 139.815 22.0286 139.898 22.4141C139.982 22.7943 140.148 23.1016 140.398 23.3359C140.648 23.5703 141.003 23.7396 141.461 23.8438C141.919 23.9479 142.523 24 143.273 24C144.086 24 144.75 23.9401 145.266 23.8203C145.786 23.7005 146.195 23.5312 146.492 23.3125C146.789 23.0938 146.992 22.8307 147.102 22.5234C147.216 22.2161 147.273 21.875 147.273 21.5V16H148.773V25H147.273V23.5C147.201 23.6615 147.078 23.8411 146.906 24.0391C146.734 24.2318 146.477 24.4115 146.133 24.5781C145.789 24.7448 145.344 24.8854 144.797 25C144.255 25.1146 143.581 25.1719 142.773 25.1719C142.102 25.1719 141.523 25.1302 141.039 25.0469C140.56 24.9688 140.151 24.8516 139.812 24.6953C139.479 24.5339 139.211 24.3359 139.008 24.1016C138.805 23.8672 138.648 23.5964 138.539 23.2891C138.43 22.9766 138.357 22.6302 138.32 22.25C138.284 21.8698 138.266 21.4531 138.266 21L138.273 16H139.773ZM159.531 21C159.531 21.7656 159.469 22.4062 159.344 22.9219C159.219 23.4323 159.008 23.8411 158.711 24.1484C158.419 24.4557 158.034 24.6745 157.555 24.8047C157.076 24.9349 156.484 25 155.781 25C155.099 25 154.526 24.9479 154.062 24.8438C153.599 24.7396 153.224 24.5625 152.938 24.3125C152.651 24.0625 152.445 23.7292 152.32 23.3125C152.195 22.8958 152.133 22.375 152.133 21.75V17.2344H150.281V16H152.133V13.5391H153.633V16H159.281V17.2344H153.633V21.75C153.633 22.25 153.669 22.6354 153.742 22.9062C153.82 23.1771 153.943 23.375 154.109 23.5C154.276 23.625 154.495 23.6979 154.766 23.7188C155.042 23.7396 155.378 23.75 155.773 23.75C156.086 23.75 156.365 23.7448 156.609 23.7344C156.859 23.724 157.076 23.6927 157.258 23.6406C157.445 23.5833 157.604 23.5 157.734 23.3906C157.865 23.276 157.969 23.1172 158.047 22.9141C158.13 22.7109 158.19 22.4557 158.227 22.1484C158.263 21.8359 158.281 21.4531 158.281 21H159.531ZM162.031 16H163.531V25H162.031V16ZM163.531 14.5H162.031V13H163.531V14.5ZM165.781 20.4375C165.781 19.5156 165.88 18.7526 166.078 18.1484C166.276 17.5443 166.594 17.0651 167.031 16.7109C167.469 16.3568 168.036 16.1094 168.734 15.9688C169.432 15.8229 170.281 15.75 171.281 15.75C172.281 15.75 173.13 15.8229 173.828 15.9688C174.526 16.1094 175.094 16.3568 175.531 16.7109C175.969 17.0651 176.286 17.5443 176.484 18.1484C176.682 18.7526 176.781 19.5156 176.781 20.4375C176.781 21.3594 176.682 22.125 176.484 22.7344C176.286 23.3438 175.969 23.8281 175.531 24.1875C175.094 24.5469 174.526 24.8021 173.828 24.9531C173.13 25.099 172.281 25.1719 171.281 25.1719C170.281 25.1719 169.432 25.099 168.734 24.9531C168.036 24.8021 167.469 24.5469 167.031 24.1875C166.594 23.8281 166.276 23.3438 166.078 22.7344C165.88 22.125 165.781 21.3594 165.781 20.4375ZM167.281 20.4375C167.281 20.9375 167.299 21.3724 167.336 21.7422C167.372 22.112 167.44 22.4297 167.539 22.6953C167.643 22.9609 167.786 23.1771 167.969 23.3438C168.151 23.5104 168.391 23.6432 168.688 23.7422C168.984 23.8411 169.344 23.9089 169.766 23.9453C170.193 23.9818 170.698 24 171.281 24C171.781 24 172.227 23.9896 172.617 23.9688C173.013 23.9427 173.357 23.888 173.648 23.8047C173.945 23.7214 174.198 23.6042 174.406 23.4531C174.615 23.2969 174.781 23.0859 174.906 22.8203C175.036 22.5547 175.13 22.2292 175.188 21.8438C175.25 21.4531 175.281 20.9844 175.281 20.4375C175.281 19.901 175.25 19.4453 175.188 19.0703C175.13 18.6901 175.036 18.3724 174.906 18.1172C174.781 17.862 174.615 17.6615 174.406 17.5156C174.198 17.3646 173.945 17.2526 173.648 17.1797C173.357 17.1016 173.013 17.0521 172.617 17.0312C172.227 17.0104 171.781 17 171.281 17C170.781 17 170.333 17.0104 169.938 17.0312C169.547 17.0521 169.203 17.1016 168.906 17.1797C168.615 17.2526 168.365 17.3646 168.156 17.5156C167.948 17.6615 167.779 17.862 167.648 18.1172C167.523 18.3724 167.43 18.6901 167.367 19.0703C167.31 19.4453 167.281 19.901 167.281 20.4375ZM187.531 25V20C187.531 19.4427 187.49 18.974 187.406 18.5938C187.323 18.2083 187.156 17.8984 186.906 17.6641C186.656 17.4297 186.302 17.2604 185.844 17.1562C185.385 17.0521 184.781 17 184.031 17C183.219 17 182.552 17.0599 182.031 17.1797C181.516 17.2995 181.109 17.4688 180.812 17.6875C180.516 17.9062 180.31 18.1693 180.195 18.4766C180.086 18.7839 180.031 19.125 180.031 19.5V25H178.531V16H180.031V17.5C180.141 17.2448 180.297 17.026 180.5 16.8438C180.703 16.6562 180.932 16.4974 181.188 16.3672C181.443 16.237 181.719 16.1328 182.016 16.0547C182.312 15.9714 182.609 15.9089 182.906 15.8672C183.203 15.8203 183.49 15.7891 183.766 15.7734C184.047 15.7578 184.302 15.75 184.531 15.75C185.198 15.75 185.771 15.7917 186.25 15.875C186.734 15.9583 187.143 16.0807 187.477 16.2422C187.815 16.4036 188.086 16.6042 188.289 16.8438C188.492 17.0833 188.648 17.362 188.758 17.6797C188.872 17.9922 188.948 18.3438 188.984 18.7344C189.021 19.1198 189.039 19.5417 189.039 20L189.031 25H187.531ZM196.297 20.8984C195.589 20.8984 194.966 20.888 194.43 20.8672C193.893 20.8464 193.43 20.8047 193.039 20.7422C192.654 20.6745 192.331 20.5807 192.07 20.4609C191.815 20.3411 191.612 20.1823 191.461 19.9844C191.31 19.7812 191.203 19.5339 191.141 19.2422C191.078 18.9453 191.047 18.625 191.047 18.2812C191.047 17.8125 191.146 17.4193 191.344 17.1016C191.542 16.7786 191.859 16.5182 192.297 16.3203C192.734 16.1172 193.302 15.9714 194 15.8828C194.698 15.7943 195.547 15.75 196.547 15.75C197.536 15.75 198.352 15.8021 198.992 15.9062C199.638 16.0104 200.148 16.1719 200.523 16.3906C200.904 16.6042 201.169 16.875 201.32 17.2031C201.471 17.5312 201.547 17.9219 201.547 18.375H200.047C200.047 18.0938 199.992 17.8646 199.883 17.6875C199.779 17.5104 199.594 17.3724 199.328 17.2734C199.062 17.1693 198.703 17.099 198.25 17.0625C197.802 17.0208 197.234 17 196.547 17C195.797 17 195.167 17.0104 194.656 17.0312C194.146 17.0521 193.734 17.1042 193.422 17.1875C193.109 17.2708 192.885 17.3984 192.75 17.5703C192.615 17.7422 192.547 17.9792 192.547 18.2812C192.547 18.4583 192.557 18.6328 192.578 18.8047C192.604 18.9714 192.659 19.1094 192.742 19.2188C192.826 19.3281 192.948 19.4115 193.109 19.4688C193.271 19.526 193.49 19.5703 193.766 19.6016C194.047 19.6276 194.393 19.6432 194.805 19.6484C195.216 19.6484 195.714 19.6484 196.297 19.6484C197.005 19.6484 197.625 19.6641 198.156 19.6953C198.693 19.7266 199.156 19.7812 199.547 19.8594C199.938 19.9375 200.26 20.0573 200.516 20.2188C200.771 20.3802 200.974 20.5573 201.125 20.75C201.281 20.9375 201.391 21.1615 201.453 21.4219C201.516 21.6771 201.547 21.974 201.547 22.3125C201.547 22.651 201.516 22.9557 201.453 23.2266C201.391 23.4922 201.281 23.7292 201.125 23.9375C200.969 24.1406 200.755 24.3177 200.484 24.4688C200.219 24.6146 199.883 24.7344 199.477 24.8281C199.07 24.9167 198.583 24.9818 198.016 25.0234C197.453 25.0703 196.797 25.0938 196.047 25.0938C195.109 25.0938 194.32 25.0469 193.68 24.9531C193.044 24.8594 192.531 24.7109 192.141 24.5078C191.75 24.2995 191.469 24.0312 191.297 23.7031C191.13 23.375 191.047 22.974 191.047 22.5H192.547C192.547 22.8125 192.599 23.0677 192.703 23.2656C192.812 23.4583 193 23.6094 193.266 23.7188C193.531 23.8281 193.888 23.9036 194.336 23.9453C194.789 23.9818 195.359 24 196.047 24C196.672 24 197.203 23.987 197.641 23.9609C198.083 23.9297 198.453 23.8828 198.75 23.8203C199.047 23.7578 199.281 23.6823 199.453 23.5938C199.625 23.5052 199.755 23.3984 199.844 23.2734C199.932 23.1484 199.987 23.0104 200.008 22.8594C200.034 22.7031 200.047 22.5312 200.047 22.3438C200.047 22.1719 200.034 22.0208 200.008 21.8906C199.987 21.7552 199.935 21.6224 199.852 21.4922C199.768 21.3568 199.646 21.2552 199.484 21.1875C199.323 21.1198 199.102 21.0651 198.82 21.0234C198.544 20.9766 198.201 20.9453 197.789 20.9297C197.378 20.9089 196.88 20.8984 196.297 20.8984Z" fill="white"/>
<path d="M28.5607 8.08501L18.8732 2.92876C18.7301 2.8526 18.5695 2.81267 18.4063 2.81267C18.243 2.81267 18.0824 2.8526 17.9393 2.92876L8.25182 8.08501C8.09993 8.16594 7.97327 8.28483 7.88505 8.42929C7.79684 8.57374 7.75031 8.73846 7.75031 8.90626C7.75031 9.07405 7.79684 9.23877 7.88505 9.38323C7.97327 9.52768 8.09993 9.64658 8.25182 9.72751L17.4375 14.6166V24.6656L14.4964 23.1L13.5625 24.7416L17.9393 27.0713C18.0823 27.1476 18.243 27.1876 18.4063 27.1876C18.5696 27.1876 18.7302 27.1476 18.8732 27.0713L28.5607 21.915C28.7126 21.8341 28.8394 21.7152 28.9276 21.5708C29.0159 21.4263 29.0625 21.2616 29.0625 21.0938V8.90626C29.0625 8.73843 29.0159 8.57369 28.9276 8.42924C28.8394 8.28478 28.7126 8.1659 28.5607 8.08501ZM18.4063 4.82063L26.0836 8.90626L18.4063 12.9919L10.7289 8.90626L18.4063 4.82063ZM27.125 20.5397L19.375 24.6647V14.6156L27.125 10.4906V20.5397Z" fill="white"/>
<path d="M9.6875 15H1.9375V13.125H9.6875V15ZM11.625 22.5H3.875V20.625H11.625V22.5ZM13.5625 18.75H5.8125V16.875H13.5625V18.75Z" fill="white"/>
</svg>
